<?xml version="1.0" encoding="UTF-8"?><svg xmlns="http://www.w3.org/2000/svg" xmlns:xlink="http://www.w3.org/1999/xlink" fill-opacity="1" color-rendering="auto" color-interpolation="auto" text-rendering="auto" stroke="black" stroke-linecap="square" width="1589" stroke-miterlimit="10" shape-rendering="auto" stroke-opacity="1" fill="black" stroke-dasharray="none" font-weight="normal" stroke-width="1" height="1098" font-family="'Dialog'" font-style="normal" stroke-linejoin="miter" font-size="12px" stroke-dashoffset="0" image-rendering="auto">
  <!--Generated by ySVG 2.5-->
  <defs id="genericDefs"/>
  <g>
    <defs id="defs1">
      <clipPath clipPathUnits="userSpaceOnUse" id="clipPath1">
        <path d="M0 0 L1589 0 L1589 1098 L0 1098 L0 0 Z"/>
      </clipPath>
      <clipPath clipPathUnits="userSpaceOnUse" id="clipPath2">
        <path d="M-15 -15 L1574 -15 L1574 1083 L-15 1083 L-15 -15 Z"/>
      </clipPath>
      <clipPath clipPathUnits="userSpaceOnUse" id="clipPath3">
        <path d="M-19 -19 L1570 -19 L1570 1079 L-19 1079 L-19 -19 Z"/>
      </clipPath>
    </defs>
    <g fill="white" text-rendering="geometricPrecision" shape-rendering="geometricPrecision" transform="translate(15,15)" stroke="white">
      <rect x="-15" width="1589" height="1098" y="-15" clip-path="url(#clipPath2)" stroke="none"/>
    </g>
    <g fill="rgb(255,204,0)" text-rendering="geometricPrecision" shape-rendering="geometricPrecision" transform="matrix(1,0,0,1,15,15)" stroke="rgb(255,204,0)">
      <rect x="194.5" width="132" height="81" y="0" clip-path="url(#clipPath2)" stroke="none"/>
    </g>
    <g text-rendering="geometricPrecision" stroke-miterlimit="1.45" shape-rendering="geometricPrecision" transform="matrix(1,0,0,1,15,15)" stroke-linecap="butt">
      <rect fill="none" x="194.5" width="132" height="81" y="0" clip-path="url(#clipPath2)"/>
      <text x="240.4932" xml:space="preserve" y="45.2139" clip-path="url(#clipPath2)" font-family="sans-serif" stroke="none">my-app</text>
    </g>
    <g fill="rgb(255,204,0)" text-rendering="geometricPrecision" shape-rendering="geometricPrecision" transform="matrix(1,0,0,1,15,15)" stroke="rgb(255,204,0)">
      <rect x="194.5" width="132" height="65" y="101" clip-path="url(#clipPath2)" stroke="none"/>
    </g>
    <g text-rendering="geometricPrecision" stroke-miterlimit="1.45" shape-rendering="geometricPrecision" transform="matrix(1,0,0,1,15,15)" stroke-linecap="butt">
      <rect fill="none" x="194.5" width="132" height="65" y="101" clip-path="url(#clipPath2)"/>
      <text x="212.1426" xml:space="preserve" y="138.2139" clip-path="url(#clipPath2)" font-family="sans-serif" stroke="none">app-drawer-layout</text>
      <path fill="none" d="M260.5 81 L260.5 92.9609" clip-path="url(#clipPath2)"/>
      <path d="M260.5 100.9609 L265.5 88.9609 L260.5 91.9609 L255.5 88.9609 Z" clip-path="url(#clipPath2)" stroke="none"/>
    </g>
    <g transform="matrix(1,0,0,1,15,15)" fill-opacity="0.5176" fill="rgb(202,236,255)" text-rendering="geometricPrecision" shape-rendering="geometricPrecision" stroke="rgb(202,236,255)" stroke-opacity="0.5176">
      <rect x="0" y="186" clip-path="url(#clipPath2)" width="504" rx="4" ry="4" height="286.7529" stroke="none"/>
    </g>
    <g fill="rgb(153,204,255)" text-rendering="geometricPrecision" shape-rendering="geometricPrecision" transform="matrix(1,0,0,1,15,15)" stroke="rgb(153,204,255)">
      <rect x="0" width="504" height="22.3765" y="186" clip-path="url(#clipPath2)" stroke="none"/>
    </g>
    <g font-size="15px" stroke-linecap="butt" transform="matrix(1,0,0,1,15,15)" text-rendering="geometricPrecision" font-family="sans-serif" shape-rendering="geometricPrecision" stroke-miterlimit="1.45">
      <text x="366.0698" xml:space="preserve" y="203.0806" clip-path="url(#clipPath2)" stroke="none">Left hand side menu</text>
    </g>
    <g stroke-linecap="round" transform="matrix(1,0,0,1,15,15)" stroke-dashoffset="2" fill="rgb(102,102,153)" text-rendering="geometricPrecision" shape-rendering="geometricPrecision" stroke-dasharray="0,4" stroke="rgb(102,102,153)" stroke-miterlimit="1.45">
      <rect x="0" y="186" clip-path="url(#clipPath2)" fill="none" width="504" rx="4" ry="4" height="286.7529"/>
    </g>
    <g fill="rgb(255,204,0)" text-rendering="geometricPrecision" shape-rendering="geometricPrecision" transform="matrix(1,0,0,1,15,15)" stroke="rgb(255,204,0)">
      <rect x="174" width="107" height="47" y="223.3765" clip-path="url(#clipPath2)" stroke="none"/>
    </g>
    <g text-rendering="geometricPrecision" stroke-miterlimit="1.45" shape-rendering="geometricPrecision" transform="matrix(1,0,0,1,15,15)" stroke-linecap="butt">
      <rect fill="none" x="174" width="107" height="47" y="223.3765" clip-path="url(#clipPath2)"/>
      <text x="197.1514" xml:space="preserve" y="251.5903" clip-path="url(#clipPath2)" font-family="sans-serif" stroke="none">app-drawer</text>
    </g>
    <g fill="rgb(255,204,0)" text-rendering="geometricPrecision" shape-rendering="geometricPrecision" transform="matrix(1,0,0,1,15,15)" stroke="rgb(255,204,0)">
      <rect x="16" width="107" height="29" y="336.7529" clip-path="url(#clipPath2)" stroke="none"/>
    </g>
    <g text-rendering="geometricPrecision" stroke-miterlimit="1.45" shape-rendering="geometricPrecision" transform="matrix(1,0,0,1,15,15)" stroke-linecap="butt">
      <rect fill="none" x="16" width="107" height="29" y="336.7529" clip-path="url(#clipPath2)"/>
      <text x="39.1455" xml:space="preserve" y="355.9668" clip-path="url(#clipPath2)" font-family="sans-serif" stroke="none">app-toolbar</text>
      <path fill="none" d="M227.5 166 L227.5 215.3484" clip-path="url(#clipPath2)"/>
      <path d="M227.5 223.3484 L232.5 211.3484 L227.5 214.3484 L222.5 211.3484 Z" clip-path="url(#clipPath2)" stroke="none"/>
      <path fill="none" d="M200.75 270.3765 L200.75 280.3765 L69.5 280.3765 L69.5 328.7254" clip-path="url(#clipPath2)"/>
      <path d="M69.5 336.7254 L74.5 324.7254 L69.5 327.7254 L64.5 324.7254 Z" clip-path="url(#clipPath2)" stroke="none"/>
    </g>
    <g transform="matrix(1,0,0,1,15,15)" fill-opacity="0.5176" fill="rgb(182,216,235)" text-rendering="geometricPrecision" shape-rendering="geometricPrecision" stroke="rgb(182,216,235)" stroke-opacity="0.5176">
      <rect x="153" y="295.8765" clip-path="url(#clipPath2)" width="335" rx="4" ry="4" height="161.8765" stroke="none"/>
    </g>
    <g fill="rgb(153,204,255)" text-rendering="geometricPrecision" shape-rendering="geometricPrecision" transform="matrix(1,0,0,1,15,15)" stroke="rgb(153,204,255)">
      <rect x="153" width="335" height="22.3765" y="295.8765" clip-path="url(#clipPath2)" stroke="none"/>
    </g>
    <g font-size="15px" stroke-linecap="butt" transform="matrix(1,0,0,1,15,15)" text-rendering="geometricPrecision" font-family="sans-serif" shape-rendering="geometricPrecision" stroke-miterlimit="1.45">
      <text x="395.1064" xml:space="preserve" y="312.957" clip-path="url(#clipPath2)" stroke="none">Menu content</text>
    </g>
    <g stroke-linecap="round" transform="matrix(1,0,0,1,15,15)" stroke-dashoffset="2" fill="rgb(102,102,153)" text-rendering="geometricPrecision" shape-rendering="geometricPrecision" stroke-dasharray="0,4" stroke="rgb(102,102,153)" stroke-miterlimit="1.45">
      <rect x="153" y="295.8765" clip-path="url(#clipPath2)" fill="none" width="335" rx="4" ry="4" height="161.8765"/>
    </g>
    <g fill="rgb(255,204,0)" text-rendering="geometricPrecision" shape-rendering="geometricPrecision" transform="matrix(1,0,0,1,15,15)" stroke="rgb(255,204,0)">
      <rect x="213.25" width="82" height="36" y="333.2529" clip-path="url(#clipPath2)" stroke="none"/>
    </g>
    <g text-rendering="geometricPrecision" stroke-miterlimit="1.45" shape-rendering="geometricPrecision" transform="matrix(1,0,0,1,15,15)" stroke-linecap="butt">
      <rect fill="none" x="213.25" width="82" height="36" y="333.2529" clip-path="url(#clipPath2)"/>
      <text x="221.2383" xml:space="preserve" y="355.9668" clip-path="url(#clipPath2)" font-family="sans-serif" stroke="none">iron-selector</text>
    </g>
    <g fill="rgb(255,204,0)" text-rendering="geometricPrecision" shape-rendering="geometricPrecision" transform="matrix(1,0,0,1,15,15)" stroke="rgb(255,204,0)">
      <rect x="169" width="30" height="30" y="412.7529" clip-path="url(#clipPath2)" stroke="none"/>
    </g>
    <g text-rendering="geometricPrecision" stroke-miterlimit="1.45" shape-rendering="geometricPrecision" transform="matrix(1,0,0,1,15,15)" stroke-linecap="butt">
      <rect fill="none" x="169" width="30" height="30" y="412.7529" clip-path="url(#clipPath2)"/>
      <text x="180.6631" xml:space="preserve" y="432.4668" clip-path="url(#clipPath2)" font-family="sans-serif" stroke="none">a</text>
    </g>
    <g fill="rgb(255,204,0)" text-rendering="geometricPrecision" shape-rendering="geometricPrecision" transform="matrix(1,0,0,1,15,15)" stroke="rgb(255,204,0)">
      <rect x="229" width="30" height="30" y="412.7529" clip-path="url(#clipPath2)" stroke="none"/>
    </g>
    <g text-rendering="geometricPrecision" stroke-miterlimit="1.45" shape-rendering="geometricPrecision" transform="matrix(1,0,0,1,15,15)" stroke-linecap="butt">
      <rect fill="none" x="229" width="30" height="30" y="412.7529" clip-path="url(#clipPath2)"/>
      <text x="240.6631" xml:space="preserve" y="432.4668" clip-path="url(#clipPath2)" font-family="sans-serif" stroke="none">a</text>
    </g>
    <g fill="rgb(255,204,0)" text-rendering="geometricPrecision" shape-rendering="geometricPrecision" transform="matrix(1,0,0,1,15,15)" stroke="rgb(255,204,0)">
      <rect x="289" width="76.5" height="30" y="412.7529" clip-path="url(#clipPath2)" stroke="none"/>
    </g>
    <g text-rendering="geometricPrecision" stroke-miterlimit="1.45" shape-rendering="geometricPrecision" transform="matrix(1,0,0,1,15,15)" stroke-linecap="butt">
      <rect fill="none" x="289" width="76.5" height="30" y="412.7529" clip-path="url(#clipPath2)"/>
      <text x="304.2373" xml:space="preserve" y="432.4668" clip-path="url(#clipPath2)" font-family="sans-serif" stroke="none">template</text>
    </g>
    <g fill="rgb(255,204,0)" text-rendering="geometricPrecision" shape-rendering="geometricPrecision" transform="matrix(1,0,0,1,15,15)" stroke="rgb(255,204,0)">
      <rect x="395.5" width="76.5" height="30" y="412.7529" clip-path="url(#clipPath2)" stroke="none"/>
    </g>
    <g text-rendering="geometricPrecision" stroke-miterlimit="1.45" shape-rendering="geometricPrecision" transform="matrix(1,0,0,1,15,15)" stroke-linecap="butt">
      <rect fill="none" x="395.5" width="76.5" height="30" y="412.7529" clip-path="url(#clipPath2)"/>
      <text x="410.7373" xml:space="preserve" y="432.4668" clip-path="url(#clipPath2)" font-family="sans-serif" stroke="none">template</text>
      <path fill="none" d="M254.25 270.3765 L254.25 325.2222" clip-path="url(#clipPath2)"/>
      <path d="M254.25 333.2222 L259.25 321.2222 L254.25 324.2222 L249.25 321.2222 Z" clip-path="url(#clipPath2)" stroke="none"/>
      <path fill="none" d="M223.5 369.2529 L223.5 379.2529 L184 379.2529 L184 404.7202" clip-path="url(#clipPath2)"/>
      <path d="M184 412.7202 L189 400.7202 L184 403.7202 L179 400.7202 Z" clip-path="url(#clipPath2)" stroke="none"/>
      <path fill="none" d="M244 369.2529 L244 404.7104" clip-path="url(#clipPath2)"/>
      <path d="M244 412.7104 L249 400.7104 L244 403.7104 L239 400.7104 Z" clip-path="url(#clipPath2)" stroke="none"/>
      <path fill="none" d="M264.5 369.2529 L264.5 389.2529 L327.25 389.2529 L327.25 404.707" clip-path="url(#clipPath2)"/>
      <path d="M327.25 412.707 L332.25 400.707 L327.25 403.707 L322.25 400.707 Z" clip-path="url(#clipPath2)" stroke="none"/>
      <path fill="none" d="M285 369.2529 L285 379.2529 L433.75 379.2529 L433.75 404.7202" clip-path="url(#clipPath2)"/>
      <path d="M433.75 412.7202 L438.75 400.7202 L433.75 403.7202 L428.75 400.7202 Z" clip-path="url(#clipPath2)" stroke="none"/>
    </g>
    <g transform="matrix(1,0,0,1,15,15)" fill-opacity="0.5176" fill="rgb(202,236,255)" text-rendering="geometricPrecision" shape-rendering="geometricPrecision" stroke="rgb(202,236,255)" stroke-opacity="0.5176">
      <rect x="534" y="186" clip-path="url(#clipPath2)" width="1025" rx="4" ry="4" height="406.7529" stroke="none"/>
    </g>
    <g fill="rgb(153,204,255)" text-rendering="geometricPrecision" shape-rendering="geometricPrecision" transform="matrix(1,0,0,1,15,15)" stroke="rgb(153,204,255)">
      <rect x="534" width="1025" height="22.3765" y="186" clip-path="url(#clipPath2)" stroke="none"/>
    </g>
    <g font-size="15px" stroke-linecap="butt" transform="matrix(1,0,0,1,15,15)" text-rendering="geometricPrecision" font-family="sans-serif" shape-rendering="geometricPrecision" stroke-miterlimit="1.45">
      <text x="1471.1162" xml:space="preserve" y="203.0806" clip-path="url(#clipPath2)" stroke="none">Main content</text>
    </g>
    <g stroke-linecap="round" transform="matrix(1,0,0,1,15,15)" stroke-dashoffset="2" fill="rgb(102,102,153)" text-rendering="geometricPrecision" shape-rendering="geometricPrecision" stroke-dasharray="0,4" stroke="rgb(102,102,153)" stroke-miterlimit="1.45">
      <rect x="534" y="186" clip-path="url(#clipPath2)" fill="none" width="1025" rx="4" ry="4" height="406.7529"/>
    </g>
    <g fill="rgb(255,204,0)" text-rendering="geometricPrecision" shape-rendering="geometricPrecision" transform="matrix(1,0,0,1,15,15)" stroke="rgb(255,204,0)">
      <rect x="613.25" width="132" height="47" y="223.3765" clip-path="url(#clipPath2)" stroke="none"/>
    </g>
    <g text-rendering="geometricPrecision" stroke-miterlimit="1.45" shape-rendering="geometricPrecision" transform="matrix(1,0,0,1,15,15)" stroke-linecap="butt">
      <rect fill="none" x="613.25" width="132" height="47" y="223.3765" clip-path="url(#clipPath2)"/>
      <text x="630.5498" xml:space="preserve" y="251.5903" clip-path="url(#clipPath2)" font-family="sans-serif" stroke="none">app-header-layout</text>
      <path fill="none" d="M293.5 166 L293.5 176 L679.25 176 L679.25 215.3302" clip-path="url(#clipPath2)"/>
      <path d="M679.25 223.3302 L684.25 211.3302 L679.25 214.3302 L674.25 211.3302 Z" clip-path="url(#clipPath2)" stroke="none"/>
    </g>
    <g transform="matrix(1,0,0,1,15,15)" fill-opacity="0.5176" fill="rgb(182,216,235)" text-rendering="geometricPrecision" shape-rendering="geometricPrecision" stroke="rgb(182,216,235)" stroke-opacity="0.5176">
      <rect x="550" y="290.3765" clip-path="url(#clipPath2)" width="276" rx="4" ry="4" height="287.3765" stroke="none"/>
    </g>
    <g fill="rgb(153,204,255)" text-rendering="geometricPrecision" shape-rendering="geometricPrecision" transform="matrix(1,0,0,1,15,15)" stroke="rgb(153,204,255)">
      <rect x="550" width="276" height="22.3765" y="290.3765" clip-path="url(#clipPath2)" stroke="none"/>
    </g>
    <g font-size="15px" stroke-linecap="butt" transform="matrix(1,0,0,1,15,15)" text-rendering="geometricPrecision" font-family="sans-serif" shape-rendering="geometricPrecision" stroke-miterlimit="1.45">
      <text x="738.0942" xml:space="preserve" y="307.457" clip-path="url(#clipPath2)" stroke="none">Page header</text>
    </g>
    <g stroke-linecap="round" transform="matrix(1,0,0,1,15,15)" stroke-dashoffset="2" fill="rgb(102,102,153)" text-rendering="geometricPrecision" shape-rendering="geometricPrecision" stroke-dasharray="0,4" stroke="rgb(102,102,153)" stroke-miterlimit="1.45">
      <rect x="550" y="290.3765" clip-path="url(#clipPath2)" fill="none" width="276" rx="4" ry="4" height="287.3765"/>
    </g>
    <g fill="rgb(255,204,0)" text-rendering="geometricPrecision" shape-rendering="geometricPrecision" transform="matrix(1,0,0,1,15,15)" stroke="rgb(255,204,0)">
      <rect x="580.25" width="132" height="47" y="327.7529" clip-path="url(#clipPath2)" stroke="none"/>
    </g>
    <g text-rendering="geometricPrecision" stroke-miterlimit="1.45" shape-rendering="geometricPrecision" transform="matrix(1,0,0,1,15,15)" stroke-linecap="butt">
      <rect fill="none" x="580.25" width="132" height="47" y="327.7529" clip-path="url(#clipPath2)"/>
      <text x="597.5498" xml:space="preserve" y="355.9668" clip-path="url(#clipPath2)" font-family="sans-serif" stroke="none">app-header-layout</text>
    </g>
    <g fill="rgb(255,204,0)" text-rendering="geometricPrecision" shape-rendering="geometricPrecision" transform="matrix(1,0,0,1,15,15)" stroke="rgb(255,204,0)">
      <rect x="592.75" width="107" height="36" y="409.7529" clip-path="url(#clipPath2)" stroke="none"/>
    </g>
    <g text-rendering="geometricPrecision" stroke-miterlimit="1.45" shape-rendering="geometricPrecision" transform="matrix(1,0,0,1,15,15)" stroke-linecap="butt">
      <rect fill="none" x="592.75" width="107" height="36" y="409.7529" clip-path="url(#clipPath2)"/>
      <text x="615.8955" xml:space="preserve" y="432.4668" clip-path="url(#clipPath2)" font-family="sans-serif" stroke="none">app-toolbar</text>
    </g>
    <g fill="rgb(255,204,0)" text-rendering="geometricPrecision" shape-rendering="geometricPrecision" transform="matrix(1,0,0,1,15,15)" stroke="rgb(255,204,0)">
      <rect x="566" width="107" height="36" y="470.7529" clip-path="url(#clipPath2)" stroke="none"/>
    </g>
    <g text-rendering="geometricPrecision" stroke-miterlimit="1.45" shape-rendering="geometricPrecision" transform="matrix(1,0,0,1,15,15)" stroke-linecap="butt">
      <rect fill="none" x="566" width="107" height="36" y="470.7529" clip-path="url(#clipPath2)"/>
      <text x="572.4697" xml:space="preserve" y="493.4668" clip-path="url(#clipPath2)" font-family="sans-serif" stroke="none">paper-icon-button</text>
    </g>
    <g fill="rgb(255,204,0)" text-rendering="geometricPrecision" shape-rendering="geometricPrecision" transform="matrix(1,0,0,1,15,15)" stroke="rgb(255,204,0)">
      <rect x="703" width="107" height="36" y="470.7529" clip-path="url(#clipPath2)" stroke="none"/>
    </g>
    <g text-rendering="geometricPrecision" stroke-miterlimit="1.45" shape-rendering="geometricPrecision" transform="matrix(1,0,0,1,15,15)" stroke-linecap="butt">
      <rect fill="none" x="703" width="107" height="36" y="470.7529" clip-path="url(#clipPath2)"/>
      <text x="710.8115" xml:space="preserve" y="493.4668" clip-path="url(#clipPath2)" font-family="sans-serif" stroke="none">simple-dropdown</text>
    </g>
    <g fill="rgb(255,204,0)" text-rendering="geometricPrecision" shape-rendering="geometricPrecision" transform="matrix(1,0,0,1,15,15)" stroke="rgb(255,204,0)">
      <rect x="703" width="107" height="36" y="526.7529" clip-path="url(#clipPath2)" stroke="none"/>
    </g>
    <g text-rendering="geometricPrecision" stroke-miterlimit="1.45" shape-rendering="geometricPrecision" transform="matrix(1,0,0,1,15,15)" stroke-linecap="butt">
      <rect fill="none" x="703" width="107" height="36" y="526.7529" clip-path="url(#clipPath2)"/>
      <text x="730.1533" xml:space="preserve" y="549.4668" clip-path="url(#clipPath2)" font-family="sans-serif" stroke="none">user-login</text>
      <path fill="none" d="M646.25 270.3765 L646.25 319.7249" clip-path="url(#clipPath2)"/>
      <path d="M646.25 327.7249 L651.25 315.7249 L646.25 318.7249 L641.25 315.7249 Z" clip-path="url(#clipPath2)" stroke="none"/>
      <path fill="none" d="M646.25 374.7529 L646.25 401.7188" clip-path="url(#clipPath2)"/>
      <path d="M646.25 409.7188 L651.25 397.7188 L646.25 400.7188 L641.25 397.7188 Z" clip-path="url(#clipPath2)" stroke="none"/>
      <path fill="none" d="M619.5 445.7529 L619.5 462.7041" clip-path="url(#clipPath2)"/>
      <path d="M619.5 470.7041 L624.5 458.7041 L619.5 461.7041 L614.5 458.7041 Z" clip-path="url(#clipPath2)" stroke="none"/>
      <path fill="none" d="M673 445.7529 L673 455.7529 L756.5 455.7529 L756.5 462.7236" clip-path="url(#clipPath2)"/>
      <path d="M756.5 470.7236 L761.5 458.7236 L756.5 461.7236 L751.5 458.7236 Z" clip-path="url(#clipPath2)" stroke="none"/>
      <path fill="none" d="M756.5 506.7529 L756.5 518.7139" clip-path="url(#clipPath2)"/>
      <path d="M756.5 526.7139 L761.5 514.7139 L756.5 517.7139 L751.5 514.7139 Z" clip-path="url(#clipPath2)" stroke="none"/>
    </g>
    <g transform="matrix(1,0,0,1,15,15)" fill-opacity="0.5176" fill="rgb(182,216,235)" text-rendering="geometricPrecision" shape-rendering="geometricPrecision" stroke="rgb(182,216,235)" stroke-opacity="0.5176">
      <rect x="856" y="290.3765" clip-path="url(#clipPath2)" width="687" rx="4" ry="4" height="170.3765" stroke="none"/>
    </g>
    <g fill="rgb(153,204,255)" text-rendering="geometricPrecision" shape-rendering="geometricPrecision" transform="matrix(1,0,0,1,15,15)" stroke="rgb(153,204,255)">
      <rect x="856" width="687" height="22.3765" y="290.3765" clip-path="url(#clipPath2)" stroke="none"/>
    </g>
    <g font-size="15px" stroke-linecap="butt" transform="matrix(1,0,0,1,15,15)" text-rendering="geometricPrecision" font-family="sans-serif" shape-rendering="geometricPrecision" stroke-miterlimit="1.45">
      <text x="1443.4268" xml:space="preserve" y="307.457" clip-path="url(#clipPath2)" stroke="none">Content pages</text>
    </g>
    <g stroke-linecap="round" transform="matrix(1,0,0,1,15,15)" stroke-dashoffset="2" fill="rgb(102,102,153)" text-rendering="geometricPrecision" shape-rendering="geometricPrecision" stroke-dasharray="0,4" stroke="rgb(102,102,153)" stroke-miterlimit="1.45">
      <rect x="856" y="290.3765" clip-path="url(#clipPath2)" fill="none" width="687" rx="4" ry="4" height="170.3765"/>
    </g>
    <g fill="rgb(255,204,0)" text-rendering="geometricPrecision" shape-rendering="geometricPrecision" transform="matrix(1,0,0,1,15,15)" stroke="rgb(255,204,0)">
      <rect x="1133.5" width="132" height="47" y="327.7529" clip-path="url(#clipPath2)" stroke="none"/>
    </g>
    <g text-rendering="geometricPrecision" stroke-miterlimit="1.45" shape-rendering="geometricPrecision" transform="matrix(1,0,0,1,15,15)" stroke-linecap="butt">
      <rect fill="none" x="1133.5" width="132" height="47" y="327.7529" clip-path="url(#clipPath2)"/>
      <text x="1171.1494" xml:space="preserve" y="355.9668" clip-path="url(#clipPath2)" font-family="sans-serif" stroke="none">iron-pages</text>
    </g>
    <g fill="rgb(255,204,0)" text-rendering="geometricPrecision" shape-rendering="geometricPrecision" transform="matrix(1,0,0,1,15,15)" stroke="rgb(255,204,0)">
      <rect x="872" width="107" height="36" y="409.7529" clip-path="url(#clipPath2)" stroke="none"/>
    </g>
    <g text-rendering="geometricPrecision" stroke-miterlimit="1.45" shape-rendering="geometricPrecision" transform="matrix(1,0,0,1,15,15)" stroke-linecap="butt">
      <rect fill="none" x="872" width="107" height="36" y="409.7529" clip-path="url(#clipPath2)"/>
      <text x="900.1641" xml:space="preserve" y="432.4668" clip-path="url(#clipPath2)" font-family="sans-serif" stroke="none">my-view1</text>
    </g>
    <g fill="rgb(255,204,0)" text-rendering="geometricPrecision" shape-rendering="geometricPrecision" transform="matrix(1,0,0,1,15,15)" stroke="rgb(255,204,0)">
      <rect x="1009" width="107" height="36" y="409.7529" clip-path="url(#clipPath2)" stroke="none"/>
    </g>
    <g text-rendering="geometricPrecision" stroke-miterlimit="1.45" shape-rendering="geometricPrecision" transform="matrix(1,0,0,1,15,15)" stroke-linecap="butt">
      <rect fill="none" x="1009" width="107" height="36" y="409.7529" clip-path="url(#clipPath2)"/>
      <text x="1037.1641" xml:space="preserve" y="432.4668" clip-path="url(#clipPath2)" font-family="sans-serif" stroke="none">my-view2</text>
    </g>
    <g fill="rgb(255,204,0)" text-rendering="geometricPrecision" shape-rendering="geometricPrecision" transform="matrix(1,0,0,1,15,15)" stroke="rgb(255,204,0)">
      <rect x="1146" width="107" height="36" y="409.7529" clip-path="url(#clipPath2)" stroke="none"/>
    </g>
    <g text-rendering="geometricPrecision" stroke-miterlimit="1.45" shape-rendering="geometricPrecision" transform="matrix(1,0,0,1,15,15)" stroke-linecap="butt">
      <rect fill="none" x="1146" width="107" height="36" y="409.7529" clip-path="url(#clipPath2)"/>
      <text x="1174.1641" xml:space="preserve" y="432.4668" clip-path="url(#clipPath2)" font-family="sans-serif" stroke="none">my-view3</text>
    </g>
    <g fill="rgb(255,204,0)" text-rendering="geometricPrecision" shape-rendering="geometricPrecision" transform="matrix(1,0,0,1,15,15)" stroke="rgb(255,204,0)">
      <rect x="1283" width="107" height="36" y="409.7529" clip-path="url(#clipPath2)" stroke="none"/>
    </g>
    <g text-rendering="geometricPrecision" stroke-miterlimit="1.45" shape-rendering="geometricPrecision" transform="matrix(1,0,0,1,15,15)" stroke-linecap="butt">
      <rect fill="none" x="1283" width="107" height="36" y="409.7529" clip-path="url(#clipPath2)"/>
      <text x="1304.4902" xml:space="preserve" y="432.4668" clip-path="url(#clipPath2)" font-family="sans-serif" stroke="none">my-view404</text>
    </g>
    <g fill="rgb(255,204,0)" text-rendering="geometricPrecision" shape-rendering="geometricPrecision" transform="matrix(1,0,0,1,15,15)" stroke="rgb(255,204,0)">
      <rect x="1420" width="107" height="36" y="409.7529" clip-path="url(#clipPath2)" stroke="none"/>
    </g>
    <g text-rendering="geometricPrecision" stroke-miterlimit="1.45" shape-rendering="geometricPrecision" transform="matrix(1,0,0,1,15,15)" stroke-linecap="butt">
      <rect fill="none" x="1420" width="107" height="36" y="409.7529" clip-path="url(#clipPath2)"/>
      <text x="1447.1621" xml:space="preserve" y="432.4668" clip-path="url(#clipPath2)" font-family="sans-serif" stroke="none">my-profile</text>
      <path fill="none" d="M712.25 270.3765 L712.25 280.3765 L1199.5 280.3765 L1199.5 319.7067" clip-path="url(#clipPath2)"/>
      <path d="M1199.5 327.7067 L1204.5 315.7067 L1199.5 318.7067 L1194.5 315.7067 Z" clip-path="url(#clipPath2)" stroke="none"/>
      <path fill="none" d="M1146.7 374.7529 L1146.7 384.7529 L925.5 384.7529 L925.5 401.7041" clip-path="url(#clipPath2)"/>
      <path d="M925.5 409.7041 L930.5 397.7041 L925.5 400.7041 L920.5 397.7041 Z" clip-path="url(#clipPath2)" stroke="none"/>
      <path fill="none" d="M1173.1 374.7529 L1173.1 394.7529 L1062.5 394.7529 L1062.5 401.7236" clip-path="url(#clipPath2)"/>
      <path d="M1062.5 409.7236 L1067.5 397.7236 L1062.5 400.7236 L1057.5 397.7236 Z" clip-path="url(#clipPath2)" stroke="none"/>
      <path fill="none" d="M1199.5 374.7529 L1199.5 401.7188" clip-path="url(#clipPath2)"/>
      <path d="M1199.5 409.7188 L1204.5 397.7188 L1199.5 400.7188 L1194.5 397.7188 Z" clip-path="url(#clipPath2)" stroke="none"/>
      <path fill="none" d="M1225.9 374.7529 L1225.9 394.7529 L1336.5 394.7529 L1336.5 401.7236" clip-path="url(#clipPath2)"/>
      <path d="M1336.5 409.7236 L1341.5 397.7236 L1336.5 400.7236 L1331.5 397.7236 Z" clip-path="url(#clipPath2)" stroke="none"/>
      <path fill="none" d="M1252.3 374.7529 L1252.3 384.7529 L1473.5 384.7529 L1473.5 401.7041" clip-path="url(#clipPath2)"/>
      <path d="M1473.5 409.7041 L1478.5 397.7041 L1473.5 400.7041 L1468.5 397.7041 Z" clip-path="url(#clipPath2)" stroke="none"/>
    </g>
    <g fill="rgb(210,210,210)" text-rendering="geometricPrecision" shape-rendering="geometricPrecision" transform="matrix(1,0,0,1,15,15) translate(4,4)" stroke="rgb(210,210,210)">
      <rect x="0" width="538" height="441.1296" y="622.7529" clip-path="url(#clipPath3)" stroke="none"/>
    </g>
    <g fill="rgb(242,240,216)" text-rendering="geometricPrecision" shape-rendering="geometricPrecision" transform="matrix(1,0,0,1,15,15)" stroke="rgb(242,240,216)">
      <rect x="0" width="538" height="441.1296" y="622.7529" clip-path="url(#clipPath2)" stroke="none"/>
      <rect x="0" y="622.7529" clip-path="url(#clipPath2)" fill="rgb(183,182,158)" width="538" height="22.3765" stroke="none"/>
    </g>
    <g font-size="15px" stroke-linecap="butt" transform="matrix(1,0,0,1,15,15)" text-rendering="geometricPrecision" font-family="sans-serif" shape-rendering="geometricPrecision" stroke-miterlimit="1.45">
      <text x="470.1333" xml:space="preserve" y="639.8335" clip-path="url(#clipPath2)" stroke="none">user-login</text>
      <rect fill="none" x="0" width="538" height="441.1296" y="622.7529" clip-path="url(#clipPath2)"/>
    </g>
    <g fill="rgb(255,204,0)" text-rendering="geometricPrecision" shape-rendering="geometricPrecision" transform="matrix(1,0,0,1,15,15)" stroke="rgb(255,204,0)">
      <rect x="5" width="107" height="36" y="931.8826" clip-path="url(#clipPath2)" stroke="none"/>
    </g>
    <g text-rendering="geometricPrecision" stroke-miterlimit="1.45" shape-rendering="geometricPrecision" transform="matrix(1,0,0,1,15,15)" stroke-linecap="butt">
      <rect fill="none" x="5" width="107" height="36" y="931.8826" clip-path="url(#clipPath2)"/>
      <text x="32.1533" xml:space="preserve" y="954.5964" clip-path="url(#clipPath2)" font-family="sans-serif" stroke="none">user-login</text>
    </g>
    <g transform="matrix(1,0,0,1,15,15)" fill-opacity="0.5176" fill="rgb(182,216,235)" text-rendering="geometricPrecision" shape-rendering="geometricPrecision" stroke="rgb(182,216,235)" stroke-opacity="0.5176">
      <rect x="132" y="836.506" clip-path="url(#clipPath2)" width="401" rx="4" ry="4" height="222.3766" stroke="none"/>
    </g>
    <g fill="rgb(153,204,255)" text-rendering="geometricPrecision" shape-rendering="geometricPrecision" transform="matrix(1,0,0,1,15,15)" stroke="rgb(153,204,255)">
      <rect x="132" width="401" height="22.3765" y="836.506" clip-path="url(#clipPath2)" stroke="none"/>
    </g>
    <g font-size="15px" stroke-linecap="butt" transform="matrix(1,0,0,1,15,15)" text-rendering="geometricPrecision" font-family="sans-serif" shape-rendering="geometricPrecision" stroke-miterlimit="1.45">
      <text x="442.604" xml:space="preserve" y="853.5865" clip-path="url(#clipPath2)" stroke="none">Not logged in</text>
    </g>
    <g stroke-linecap="round" transform="matrix(1,0,0,1,15,15)" stroke-dashoffset="2" fill="rgb(102,102,153)" text-rendering="geometricPrecision" shape-rendering="geometricPrecision" stroke-dasharray="0,4" stroke="rgb(102,102,153)" stroke-miterlimit="1.45">
      <rect x="132" y="836.506" clip-path="url(#clipPath2)" fill="none" width="401" rx="4" ry="4" height="222.3766"/>
    </g>
    <g fill="rgb(255,204,0)" text-rendering="geometricPrecision" shape-rendering="geometricPrecision" transform="matrix(1,0,0,1,15,15)" stroke="rgb(255,204,0)">
      <rect x="147" width="107" height="36" y="940.8826" clip-path="url(#clipPath2)" stroke="none"/>
    </g>
    <g text-rendering="geometricPrecision" stroke-miterlimit="1.45" shape-rendering="geometricPrecision" transform="matrix(1,0,0,1,15,15)" stroke-linecap="butt">
      <rect fill="none" x="147" width="107" height="36" y="940.8826" clip-path="url(#clipPath2)"/>
      <text x="177.4873" xml:space="preserve" y="963.5964" clip-path="url(#clipPath2)" font-family="sans-serif" stroke="none">template</text>
    </g>
    <g fill="rgb(255,204,0)" text-rendering="geometricPrecision" shape-rendering="geometricPrecision" transform="matrix(1,0,0,1,15,15)" stroke="rgb(255,204,0)">
      <rect x="279" width="107" height="36" y="1006.8826" clip-path="url(#clipPath2)" stroke="none"/>
    </g>
    <g text-rendering="geometricPrecision" stroke-miterlimit="1.45" shape-rendering="geometricPrecision" transform="matrix(1,0,0,1,15,15)" stroke-linecap="butt">
      <rect fill="none" x="279" width="107" height="36" y="1006.8826" clip-path="url(#clipPath2)"/>
      <text x="302.1455" xml:space="preserve" y="1029.5964" clip-path="url(#clipPath2)" font-family="sans-serif" stroke="none">paper-input</text>
    </g>
    <g fill="rgb(255,204,0)" text-rendering="geometricPrecision" shape-rendering="geometricPrecision" transform="matrix(1,0,0,1,15,15)" stroke="rgb(255,204,0)">
      <rect x="279" width="107" height="36" y="940.8826" clip-path="url(#clipPath2)" stroke="none"/>
    </g>
    <g text-rendering="geometricPrecision" stroke-miterlimit="1.45" shape-rendering="geometricPrecision" transform="matrix(1,0,0,1,15,15)" stroke-linecap="butt">
      <rect fill="none" x="279" width="107" height="36" y="940.8826" clip-path="url(#clipPath2)"/>
      <text x="284.4707" xml:space="preserve" y="963.5964" clip-path="url(#clipPath2)" font-family="sans-serif" stroke="none">paper-radio-group</text>
    </g>
    <g fill="rgb(255,204,0)" text-rendering="geometricPrecision" shape-rendering="geometricPrecision" transform="matrix(1,0,0,1,15,15)" stroke="rgb(255,204,0)">
      <rect x="411" width="107" height="36" y="1006.8826" clip-path="url(#clipPath2)" stroke="none"/>
    </g>
    <g text-rendering="geometricPrecision" stroke-miterlimit="1.45" shape-rendering="geometricPrecision" transform="matrix(1,0,0,1,15,15)" stroke-linecap="butt">
      <rect fill="none" x="411" width="107" height="36" y="1006.8826" clip-path="url(#clipPath2)"/>
      <text x="415.1348" xml:space="preserve" y="1029.5964" clip-path="url(#clipPath2)" font-family="sans-serif" stroke="none">paper-radio-button</text>
    </g>
    <g fill="rgb(255,204,0)" text-rendering="geometricPrecision" shape-rendering="geometricPrecision" transform="matrix(1,0,0,1,15,15)" stroke="rgb(255,204,0)">
      <rect x="411" width="107" height="36" y="940.8826" clip-path="url(#clipPath2)" stroke="none"/>
    </g>
    <g text-rendering="geometricPrecision" stroke-miterlimit="1.45" shape-rendering="geometricPrecision" transform="matrix(1,0,0,1,15,15)" stroke-linecap="butt">
      <rect fill="none" x="411" width="107" height="36" y="940.8826" clip-path="url(#clipPath2)"/>
      <text x="415.1348" xml:space="preserve" y="963.5964" clip-path="url(#clipPath2)" font-family="sans-serif" stroke="none">paper-radio-button</text>
    </g>
    <g fill="rgb(255,204,0)" text-rendering="geometricPrecision" shape-rendering="geometricPrecision" transform="matrix(1,0,0,1,15,15)" stroke="rgb(255,204,0)">
      <rect x="411" width="107" height="36" y="874.8826" clip-path="url(#clipPath2)" stroke="none"/>
    </g>
    <g text-rendering="geometricPrecision" stroke-miterlimit="1.45" shape-rendering="geometricPrecision" transform="matrix(1,0,0,1,15,15)" stroke-linecap="butt">
      <rect fill="none" x="411" width="107" height="36" y="874.8826" clip-path="url(#clipPath2)"/>
      <text x="415.1348" xml:space="preserve" y="897.5964" clip-path="url(#clipPath2)" font-family="sans-serif" stroke="none">paper-radio-button</text>
    </g>
    <g fill="rgb(255,204,0)" text-rendering="geometricPrecision" shape-rendering="geometricPrecision" transform="matrix(1,0,0,1,15,15)" stroke="rgb(255,204,0)">
      <rect x="279" width="107" height="36" y="874.8826" clip-path="url(#clipPath2)" stroke="none"/>
    </g>
    <g text-rendering="geometricPrecision" stroke-miterlimit="1.45" shape-rendering="geometricPrecision" transform="matrix(1,0,0,1,15,15)" stroke-linecap="butt">
      <rect fill="none" x="279" width="107" height="36" y="874.8826" clip-path="url(#clipPath2)"/>
      <text x="298.4746" xml:space="preserve" y="897.5964" clip-path="url(#clipPath2)" font-family="sans-serif" stroke="none">paper-button</text>
      <path fill="none" d="M112 958.8826 L138.9658 958.8826" clip-path="url(#clipPath2)"/>
      <path d="M146.9658 958.8826 L134.9658 953.8826 L137.9658 958.8826 L134.9658 963.8826 Z" clip-path="url(#clipPath2)" stroke="none"/>
      <path fill="none" d="M254 970.8826 L264 970.8826 L264 1024.8826 L270.9707 1024.8826" clip-path="url(#clipPath2)"/>
      <path d="M278.9707 1024.8826 L266.9707 1019.8826 L269.9707 1024.8826 L266.9707 1029.8826 Z" clip-path="url(#clipPath2)" stroke="none"/>
      <path fill="none" d="M254 958.8826 L270.9512 958.8826" clip-path="url(#clipPath2)"/>
      <path d="M278.9512 958.8826 L266.9512 953.8826 L269.9512 958.8826 L266.9512 963.8826 Z" clip-path="url(#clipPath2)" stroke="none"/>
      <path fill="none" d="M386 970.8826 L396 970.8826 L396 1024.8826 L402.9707 1024.8826" clip-path="url(#clipPath2)"/>
      <path d="M410.9707 1024.8826 L398.9707 1019.8826 L401.9707 1024.8826 L398.9707 1029.8826 Z" clip-path="url(#clipPath2)" stroke="none"/>
      <path fill="none" d="M386 958.8826 L402.9512 958.8826" clip-path="url(#clipPath2)"/>
      <path d="M410.9512 958.8826 L398.9512 953.8826 L401.9512 958.8826 L398.9512 963.8826 Z" clip-path="url(#clipPath2)" stroke="none"/>
      <path fill="none" d="M386 946.8826 L396 946.8826 L396 892.8826 L402.9707 892.8826" clip-path="url(#clipPath2)"/>
      <path d="M410.9707 892.8826 L398.9707 887.8826 L401.9707 892.8826 L398.9707 897.8826 Z" clip-path="url(#clipPath2)" stroke="none"/>
      <path fill="none" d="M254 946.8826 L264 946.8826 L264 892.8826 L270.9707 892.8826" clip-path="url(#clipPath2)"/>
      <path d="M278.9707 892.8826 L266.9707 887.8826 L269.9707 892.8826 L266.9707 897.8826 Z" clip-path="url(#clipPath2)" stroke="none"/>
    </g>
    <g transform="matrix(1,0,0,1,15,15)" fill-opacity="0.5176" fill="rgb(182,216,235)" text-rendering="geometricPrecision" shape-rendering="geometricPrecision" stroke="rgb(182,216,235)" stroke-opacity="0.5176">
      <rect x="132" y="650.1294" clip-path="url(#clipPath2)" width="269" rx="4" ry="4" height="156.3766" stroke="none"/>
    </g>
    <g fill="rgb(153,204,255)" text-rendering="geometricPrecision" shape-rendering="geometricPrecision" transform="matrix(1,0,0,1,15,15)" stroke="rgb(153,204,255)">
      <rect x="132" width="269" height="22.3765" y="650.1294" clip-path="url(#clipPath2)" stroke="none"/>
    </g>
    <g font-size="15px" stroke-linecap="butt" transform="matrix(1,0,0,1,15,15)" text-rendering="geometricPrecision" font-family="sans-serif" shape-rendering="geometricPrecision" stroke-miterlimit="1.45">
      <text x="333.104" xml:space="preserve" y="667.21" clip-path="url(#clipPath2)" stroke="none">Logged in</text>
    </g>
    <g stroke-linecap="round" transform="matrix(1,0,0,1,15,15)" stroke-dashoffset="2" fill="rgb(102,102,153)" text-rendering="geometricPrecision" shape-rendering="geometricPrecision" stroke-dasharray="0,4" stroke="rgb(102,102,153)" stroke-miterlimit="1.45">
      <rect x="132" y="650.1294" clip-path="url(#clipPath2)" fill="none" width="269" rx="4" ry="4" height="156.3766"/>
    </g>
    <g fill="rgb(255,204,0)" text-rendering="geometricPrecision" shape-rendering="geometricPrecision" transform="matrix(1,0,0,1,15,15)" stroke="rgb(255,204,0)">
      <rect x="147" width="107" height="36" y="745.506" clip-path="url(#clipPath2)" stroke="none"/>
    </g>
    <g text-rendering="geometricPrecision" stroke-miterlimit="1.45" shape-rendering="geometricPrecision" transform="matrix(1,0,0,1,15,15)" stroke-linecap="butt">
      <rect fill="none" x="147" width="107" height="36" y="745.506" clip-path="url(#clipPath2)"/>
      <text x="177.4873" xml:space="preserve" y="768.2198" clip-path="url(#clipPath2)" font-family="sans-serif" stroke="none">template</text>
    </g>
    <g fill="rgb(255,204,0)" text-rendering="geometricPrecision" shape-rendering="geometricPrecision" transform="matrix(1,0,0,1,15,15)" stroke="rgb(255,204,0)">
      <rect x="279" width="107" height="36" y="754.506" clip-path="url(#clipPath2)" stroke="none"/>
    </g>
    <g text-rendering="geometricPrecision" stroke-miterlimit="1.45" shape-rendering="geometricPrecision" transform="matrix(1,0,0,1,15,15)" stroke-linecap="butt">
      <rect fill="none" x="279" width="107" height="36" y="754.506" clip-path="url(#clipPath2)"/>
      <text x="298.4746" xml:space="preserve" y="777.2198" clip-path="url(#clipPath2)" font-family="sans-serif" stroke="none">paper-button</text>
    </g>
    <g fill="rgb(255,204,0)" text-rendering="geometricPrecision" shape-rendering="geometricPrecision" transform="matrix(1,0,0,1,15,15)" stroke="rgb(255,204,0)">
      <rect x="279" width="107" height="36" y="688.506" clip-path="url(#clipPath2)" stroke="none"/>
    </g>
    <g text-rendering="geometricPrecision" stroke-miterlimit="1.45" shape-rendering="geometricPrecision" transform="matrix(1,0,0,1,15,15)" stroke-linecap="butt">
      <rect fill="none" x="279" width="107" height="36" y="688.506" clip-path="url(#clipPath2)"/>
      <text x="298.4746" xml:space="preserve" y="711.2198" clip-path="url(#clipPath2)" font-family="sans-serif" stroke="none">paper-button</text>
      <path fill="none" d="M112 940.8826 L122 940.8826 L122 763.506 L138.9512 763.506" clip-path="url(#clipPath2)"/>
      <path d="M146.9512 763.506 L134.9512 758.506 L137.9512 763.506 L134.9512 768.506 Z" clip-path="url(#clipPath2)" stroke="none"/>
      <path fill="none" d="M254 772.506 L270.9512 772.506" clip-path="url(#clipPath2)"/>
      <path d="M278.9512 772.506 L266.9512 767.506 L269.9512 772.506 L266.9512 777.506 Z" clip-path="url(#clipPath2)" stroke="none"/>
      <path fill="none" d="M254 754.506 L264 754.506 L264 706.506 L270.9707 706.506" clip-path="url(#clipPath2)"/>
      <path d="M278.9707 706.506 L266.9707 701.506 L269.9707 706.506 L266.9707 711.506 Z" clip-path="url(#clipPath2)" stroke="none"/>
    </g>
  </g>
</svg>
